<?xml version="1.0" encoding="UTF-8"?>
<svg width="63px" height="28px" viewBox="0 0 63 28" version="1.1" xmlns="http://www.w3.org/2000/svg" xmlns:xlink="http://www.w3.org/1999/xlink">
    <!-- Generator: Sketch 52.4 (67378) - http://www.bohemiancoding.com/sketch -->
    <title>Group 2 Copy</title>
    <desc>Created with Sketch.</desc>
    <defs>
        <linearGradient x1="90.3404018%" y1="93.093378%" x2="19.3526786%" y2="17.6655506%" id="linearGradient-1">
            <stop stop-color="#6D6EED" offset="0%"></stop>
            <stop stop-color="#898AE7" offset="100%"></stop>
        </linearGradient>
    </defs>
    <g id="Page-1" stroke="none" stroke-width="1" fill="none" fill-rule="evenodd">
        <g id="Desktop-HD" transform="translate(-44.000000, -28.000000)">
            <g id="Group-14" transform="translate(44.000000, 28.000000)">
                <g id="Group-2-Copy">
                    <g id="Group-4">
                        <g id="Group">
                            <path d="M27.8504421,23.3372082 L23.3372082,27.8504421 C22.907207,27.9483157 22.4596393,28 22,28 L6,28 C2.6862915,28 4.05812251e-16,25.3137085 0,22 L0,6 C-4.05812251e-16,2.6862915 2.6862915,6.08718376e-16 6,0 L22,0 C25.3137085,-6.08718376e-16 28,2.6862915 28,6 L28,22 C28,22.4596393 27.9483157,22.907207 27.8504417,23.3372086 Z M16.944,14.568 C17.3120018,14.568 17.5879991,14.5560001 17.772,14.532 C17.9560009,14.5079999 18.1679988,14.4400006 18.408,14.328 C18.8400022,14.1039989 19.056,13.488005 19.056,12.48 C19.056,11.4559949 18.8480021,10.840001 18.432,10.632 C18.1919988,10.5039994 17.9800009,10.4280001 17.796,10.404 C17.6119991,10.3799999 17.3400018,10.368 16.98,10.368 C16.6199982,10.368 16.0880035,10.3999997 15.384,10.464 L15.384,8.112 C15.384,7.5519972 15.3440004,7.14400128 15.264,6.888 C15.055999,6.29599704 14.4080054,6 13.32,6 C12.2959949,6 11.680001,6.199998 11.472,6.6 C11.3439994,6.80800104 11.2680001,6.99999912 11.244,7.176 C11.2199999,7.35200088 11.208,7.62399816 11.208,7.992 L11.208,10.464 L10.416,10.368 C10.0319981,10.368 9.71200128,10.471999 9.456,10.68 C9.31199928,10.8080006 9.2000004,11.0199985 9.12,11.316 C9.0399996,11.6120015 9,12.0879967 9,12.744 C9,13.4000033 9.11599884,13.8639986 9.348,14.136 C9.58000116,14.4080014 9.87199824,14.544 10.224,14.544 C10.5760018,14.544 10.9039985,14.5200002 11.208,14.472 L11.208,18.024 C11.208,19.816009 11.6399957,21.0879962 12.504,21.84 C13.3680043,22.5920038 14.6319917,22.968 16.296,22.968 C16.6480018,22.968 16.9159991,22.9560001 17.1,22.932 C17.2840009,22.9079999 17.4959988,22.8400006 17.736,22.728 C18.1840022,22.5039989 18.408,21.888005 18.408,20.88 C18.408,20.0159957 18.2240018,19.480001 17.856,19.272 C17.6319989,19.1439994 17.420001,19.0680001 17.22,19.044 C17.019999,19.0199999 16.7320019,19.008 16.356,19.008 C15.9799981,19.008 15.7240007,18.912001 15.588,18.72 C15.4519993,18.527999 15.384,18.2160022 15.384,17.784 L15.384,14.472 L16.944,14.568 Z" id="Combined-Shape" fill="url(#linearGradient-1)"></path>
                            <path d="M27.9911458,23.1756711 L27.9911458,26.9880208 C27.9911458,27.5403056 27.5434306,27.9880208 26.9911458,27.9880208 L23.1787961,27.9880208 L27.9911458,23.1756711 Z" id="Combined-Shape" fill="#A5A6F8" transform="translate(25.584971, 25.581846) rotate(-180.000000) translate(-25.584971, -25.581846) "></path>
                        </g>
                    </g>
                    <path d="M30,13.016 C30,12.6479982 30.0119999,12.3720009 30.036,12.188 C30.0600001,12.0039991 30.1279994,11.7920012 30.24,11.552 C30.4640011,11.1359979 31.0879949,10.928 32.112,10.928 C32.8800038,10.928 33.4239984,11.0639986 33.744,11.336 C34.0160014,11.5600011 34.1599999,11.9039977 34.176,12.368 C34.1920001,12.5280008 34.2,12.7599985 34.2,13.064 L34.2,21.464 C34.2,21.8320018 34.1880001,22.1079991 34.164,22.292 C34.1399999,22.4760009 34.0640006,22.6879988 33.936,22.928 C33.727999,23.3440021 33.1120051,23.552 32.088,23.552 C31.079995,23.552 30.4640011,23.3360022 30.24,22.904 C30.1279994,22.6639988 30.0600001,22.4560009 30.036,22.28 C30.0119999,22.1039991 30,21.8240019 30,21.44 L30,13.016 Z M33.936,8.576 C33.8239994,8.80000112 33.6160015,8.95999952 33.312,9.056 C33.0079985,9.15200048 32.6040025,9.2 32.1,9.2 C31.5959975,9.2 31.1920015,9.15200048 30.888,9.056 C30.5839985,8.95999952 30.3720006,8.7920012 30.252,8.552 C30.1319994,8.3119988 30.0600001,8.10000092 30.036,7.916 C30.0119999,7.73199908 30,7.45600184 30,7.088 C30,6.71999816 30.0119999,6.44400092 30.036,6.26 C30.0600001,6.07599908 30.1279994,5.87200112 30.24,5.648 C30.4640011,5.21599784 31.0879949,5 32.112,5 C33.120005,5 33.727999,5.21599784 33.936,5.648 C34.0640006,5.8880012 34.1399999,6.09999908 34.164,6.284 C34.1880001,6.46800092 34.2,6.74399816 34.2,7.112 C34.2,7.48000184 34.1880001,7.75599908 34.164,7.94 C34.1399999,8.12400092 34.0640006,8.3359988 33.936,8.576 Z M43.056,10.928 C44.4800071,10.928 45.787994,11.5599937 46.98,12.824 C48.172006,14.0880063 48.768,15.5559916 48.768,17.228 C48.768,18.9000084 48.1760059,20.3639937 46.992,21.62 C45.8079941,22.8760063 44.5360068,23.504 43.176,23.504 C41.8159932,23.504 40.8480029,23.1200038 40.272,22.352 C40.1439994,23.1360039 39.4560062,23.528 38.208,23.528 C37.199995,23.528 36.5840011,23.3120022 36.36,22.88 C36.2479994,22.6399988 36.1800001,22.4280009 36.156,22.244 C36.1319999,22.0599991 36.12,21.7840018 36.12,21.416 L36.12,7.088 C36.12,6.71999816 36.1319999,6.44400092 36.156,6.26 C36.1800001,6.07599908 36.2479994,5.87200112 36.36,5.648 C36.5840011,5.21599784 37.2079949,5 38.232,5 C39.240005,5 39.847999,5.21599784 40.056,5.648 C40.1840006,5.8880012 40.2599999,6.09999908 40.284,6.284 C40.3080001,6.46800092 40.32,6.74399816 40.32,7.112 L40.32,12.104 C40.9600032,11.3199961 41.8719941,10.928 43.056,10.928 Z M40.944,18.68 C41.344002,19.1120022 41.839997,19.328 42.432,19.328 C43.024003,19.328 43.5279979,19.1120022 43.944,18.68 C44.3600021,18.2479978 44.568,17.7680026 44.568,17.24 C44.568,16.7119974 44.3760019,16.2280022 43.992,15.788 C43.6079981,15.3479978 43.0960032,15.128 42.456,15.128 C41.8159968,15.128 41.3080019,15.3519978 40.932,15.8 C40.5559981,16.2480022 40.368,16.7319974 40.368,17.252 C40.368,17.7720026 40.5599981,18.2479978 40.944,18.68 Z M55.944,23.504 C54.3279919,23.504 52.9880053,22.8920061 51.924,21.668 C50.8599947,20.4439939 50.328,18.9520088 50.328,17.192 L50.328,12.992 C50.328,12.6079981 50.3399999,12.3280009 50.364,12.152 C50.3880001,11.9759991 50.4559994,11.7680012 50.568,11.528 C50.7920011,11.0959978 51.4159949,10.88 52.44,10.88 C53.5600056,10.88 54.215999,11.183997 54.408,11.792 C54.5040005,12.0480013 54.552,12.4559972 54.552,13.016 L54.552,17.216 C54.552,17.8720033 54.7399981,18.3839982 55.116,18.752 C55.4920019,19.1200018 55.9959968,19.304 56.628,19.304 C57.2600032,19.304 57.771998,19.1120019 58.164,18.728 C58.556002,18.3439981 58.752,17.8400031 58.752,17.216 L58.752,12.968 C58.752,12.5999982 58.7639999,12.3240009 58.788,12.14 C58.8120001,11.9559991 58.8879994,11.7440012 59.016,11.504 C59.224001,11.0879979 59.8399949,10.88 60.864,10.88 C61.872005,10.88 62.4879989,11.0959978 62.712,11.528 C62.8240006,11.7680012 62.8919999,11.9799991 62.916,12.164 C62.9400001,12.3480009 62.952,12.6239982 62.952,12.992 L62.952,21.488 C62.952,21.8400018 62.9400001,22.1079991 62.916,22.292 C62.8919999,22.4760009 62.8160006,22.6799989 62.688,22.904 C62.4479988,23.3200021 61.832005,23.528 60.84,23.528 C59.8639951,23.528 59.2640011,23.3360019 59.04,22.952 C58.8799992,22.6799986 58.8,22.3520019 58.8,21.968 C58.7359997,22.0800006 58.5920011,22.239999 58.368,22.448 C58.1439989,22.656001 57.928001,22.8319993 57.72,22.976 C57.1759973,23.3280018 56.5840032,23.504 55.944,23.504 Z" id="ibu" fill="#898AE7"></path>
                </g>
            </g>
        </g>
    </g>
</svg>